<?xml version='1.0' encoding='UTF-8'?>
<svg xmlns="http://www.w3.org/2000/svg" style="enable-background:new 0 0 115.571 55.79;" version="1.1" viewBox="0 0 115.571 55.79" x="0px" y="0px" xml:space="preserve">
<g id="VuMark-Border">
	<path d="M102.122,27.79l12.98-22.54c0.63-1.09,0.62-2.42,0-3.5c-0.63-1.08-1.78-1.75-3.03-1.75H3.502   c-1.25,0-2.4,0.67-3.03,1.75s-0.63,2.41,0,3.5l12.98,22.54L0.473,50.55c-0.62,1.09-0.61,2.42,0.01,3.49   c0.63,1.08,1.78,1.75,3.03,1.75h108.55c1.25,0,2.4-0.67,3.02-1.75c0.63-1.07,0.64-2.4,0.02-3.49L102.122,27.79z M3.512,52.29   l13.97-24.51L3.502,3.5h108.57l-13.98,24.28l13.97,24.51H3.512z" style="fill:#4F5858;" />
</g>
<g id="VuMark-ClearSpace">
	<polygon points="98.092,27.78 112.062,52.29 3.512,52.29 17.483,27.78 3.502,3.5 112.072,3.5  " style="fill:#FFFFFF;" />
</g>
<g id="VuMark-Background">
	<polygon points="19.563,6.999 96.01,6.999 83.961,27.878 96.007,48.786 19.566,48.786 31.612,27.878  " style="fill:#66B144;" />
	<polyline points="45.732,45.304 69.831,45.304 71.845,48.786 43.719,48.786 45.732,45.304  " style="fill:#4F5858;" />
	<polygon points="94.057,27.774 106.017,6.999 96.01,6.999 83.961,27.878 96.007,48.786 106.036,48.786    94.057,27.774  " style="fill:#4F5858;" />
	<g>
		<polygon points="39.7,38.297 39.698,17.534 57.695,7.017 75.872,17.508 75.874,38.27 57.875,48.786   " style="fill:#FFFFFF;" />
		<g>
			<polygon points="57.814,35.299 70.628,27.902 57.777,20.505 44.984,27.902 57.814,35.299    " style="fill:#66B144;" />
			<polygon points="57.775,17.834 72.867,26.522 72.865,19.253 57.7,10.5 42.704,19.262 42.706,26.547      57.775,17.834    " style="fill:#4F5858;" />
			<polygon points="57.814,37.97 42.704,29.258 42.706,36.551 57.872,45.304 72.867,36.542 72.865,29.282      57.814,37.97    " style="fill:#4F5858;" />
		</g>
	</g>
	<polygon points="21.516,27.774 9.556,6.999 19.563,6.999 31.612,27.878 19.566,48.786 9.537,48.786    21.516,27.774  " style="fill:#4F5858;" />
	<polygon points="25.606,45.304 21.575,45.304 19.566,48.786 23.592,48.786  " style="fill:#FFFFFF;" />
	<polygon points="96.01,6.999 91.979,6.999 89.97,10.482 93.997,10.482  " style="fill:#66B144;" />
	<polygon points="49.763,45.304 45.732,45.304 43.723,48.786 47.75,48.786  " style="display:none;fill:#66B144;" />
	<polygon points="65.81,45.304 69.841,45.304 71.85,48.786 67.823,48.786  " style="display:none;fill:#66B144;" />
</g>
<g id="VuMark-DarkElements">
	<polygon id="d0000" points="27.62,41.822 23.589,41.822 21.58,45.304 25.606,45.304  " style="fill:#66B144;" />
	<polygon id="d0003" points="31.646,41.822 27.615,41.822 25.606,45.304 29.632,45.304  " style="fill:#66B144;" />
	<polygon id="d0004" points="33.658,45.304 29.627,45.304 27.619,48.786 31.645,48.786  " style="fill:#66B144;" />
	<polygon id="d0006" points="35.672,41.822 31.641,41.822 29.632,45.304 33.658,45.304  " style="fill:#66B144;" />
	<polygon id="d0007" points="37.685,45.304 33.654,45.304 31.645,48.786 35.671,48.786  " style="fill:#66B144;" />
	<polygon id="d0008" points="37.686,38.339 33.655,38.339 31.646,41.822 35.672,41.822  " style="fill:#66B144;" />
	<polygon id="d0009" points="39.698,41.822 35.667,41.822 33.658,45.304 37.685,45.304  " style="fill:#66B144;" />
	<polygon id="d0010" points="39.7,34.857 35.668,34.857 33.66,38.339 37.686,38.339  " style="fill:#66B144;" />
	<polygon id="d0012" points="43.725,41.822 39.694,41.822 37.685,45.304 41.711,45.304  " style="fill:#66B144;" />
	<polygon id="d0013" points="45.737,45.304 41.706,45.304 39.697,48.786 43.723,48.786  " style="fill:#66B144;" />
	<polygon id="d0015" points="33.661,31.375 29.63,31.375 27.621,34.857 31.647,34.857  " style="fill:#66B144;" />
	<polygon id="d0016" points="35.673,34.857 31.642,34.857 29.633,38.339 33.66,38.339  " style="fill:#66B144;" />
	<polygon id="d0021" points="23.59,13.964 27.621,13.964 29.63,17.446 25.604,17.446  " style="fill:#66B144;" />
	<polygon id="d0022" points="25.604,17.446 29.635,17.446 31.644,20.928 27.617,20.928  " style="fill:#66B144;" />
	<polygon id="d0024" points="27.617,20.928 31.648,20.928 33.657,24.41 29.631,24.41  " style="fill:#66B144;" />
	<polygon id="d0026" points="29.631,24.41 33.662,24.41 35.671,27.893 31.645,27.893  " style="fill:#66B144;" />
	<polygon id="d0028" points="19.563,6.999 23.594,6.999 25.603,10.482 21.576,10.482  " style="fill:#66B144;" />
	<polygon id="d0031" points="25.603,10.482 29.634,10.482 31.643,13.964 27.616,13.964  " style="fill:#66B144;" />
	<polygon id="d0033" points="29.629,10.482 33.66,10.482 35.669,13.964 31.643,13.964  " style="fill:#66B144;" />
	<polygon id="d0034" points="31.641,6.999 35.672,6.999 37.681,10.482 33.655,10.482  " style="fill:#66B144;" />
	<polygon id="d0035" points="31.644,20.928 35.675,20.928 37.684,24.41 33.657,24.41  " style="fill:#66B144;" />
	<polygon id="d0037" points="33.656,17.446 37.687,17.446 39.696,20.928 35.67,20.928  " style="fill:#66B144;" />
	<polygon id="d0039" points="37.681,10.482 41.712,10.482 43.721,13.964 39.695,13.964  " style="fill:#66B144;" />
	<polygon id="d0040" points="39.694,6.999 43.725,6.999 45.734,10.482 41.708,10.482  " style="fill:#66B144;" />
	<polygon id="d0041" points="43.72,6.999 47.751,6.999 49.76,10.482 45.734,10.482  " style="fill:#66B144;" />
	<polygon id="d0042" points="69.836,45.304 73.867,45.304 75.876,48.786 71.85,48.786  " style="fill:#66B144;" />
	<polygon id="d0043" points="71.848,41.822 75.879,41.822 77.888,45.304 73.862,45.304  " style="fill:#66B144;" />
	<polygon id="d0045" points="75.875,41.822 79.906,41.822 81.915,45.304 77.888,45.304  " style="fill:#66B144;" />
	<polygon id="d0046" points="77.887,38.339 81.918,38.339 83.927,41.822 79.901,41.822  " style="fill:#66B144;" />
	<polygon id="d0047" points="77.888,45.304 81.919,45.304 83.928,48.786 79.902,48.786  " style="fill:#66B144;" />
	<polygon id="d0049" points="75.872,27.893 79.903,27.893 81.912,31.375 77.886,31.375  " style="fill:#66B144;" />
	<polygon id="d0050" points="75.873,34.857 79.905,34.857 81.913,38.339 77.887,38.339  " style="fill:#66B144;" />
	<polygon id="d0051" points="77.886,31.375 81.917,31.375 83.926,34.857 79.9,34.857  " style="fill:#66B144;" />
	<polygon id="d0053" points="79.9,34.857 83.931,34.857 85.94,38.339 81.913,38.339  " style="fill:#66B144;" />
	<polygon id="d0054" points="81.912,31.375 85.943,31.375 87.952,34.857 83.926,34.857  " style="fill:#66B144;" />
	<polygon id="d0055" points="81.913,38.339 85.944,38.339 87.953,41.822 83.927,41.822  " style="fill:#66B144;" />
	<polygon id="d0056" points="81.915,45.304 85.946,45.304 87.954,48.786 83.928,48.786  " style="fill:#66B144;" />
	<polygon id="d0058" points="83.927,41.822 87.958,41.822 89.967,45.304 85.941,45.304  " style="fill:#66B144;" />
	<polygon id="d0059" points="85.94,38.339 89.971,38.339 91.98,41.822 87.953,41.822  " style="fill:#66B144;" />
	<polygon id="d0060" points="85.941,45.304 89.972,45.304 91.981,48.786 87.954,48.786  " style="fill:#66B144;" />
	<polygon id="d0064" points="81.917,17.446 77.886,17.446 75.877,20.928 79.903,20.928  " style="fill:#66B144;" />
	<polygon id="d0066" points="83.93,13.964 79.899,13.964 77.891,17.446 81.917,17.446  " style="fill:#66B144;" />
	<polygon id="d0067" points="85.942,24.41 81.911,24.41 79.902,27.893 83.928,27.893  " style="fill:#66B144;" />
	<polygon id="d0070" points="71.853,6.999 67.822,6.999 65.813,10.482 69.839,10.482  " style="fill:#66B144;" />
	<polygon id="d0073" points="79.905,6.999 75.874,6.999 73.865,10.482 77.892,10.482  " style="fill:#66B144;" />
	<polygon id="d0074" points="81.918,10.482 77.887,10.482 75.878,13.964 79.904,13.964  " style="fill:#66B144;" />
	<polygon id="d0075" points="83.932,6.999 79.901,6.999 77.892,10.482 81.918,10.482  " style="fill:#66B144;" />
	<polygon id="d0080" points="89.97,10.482 85.939,10.482 83.93,13.964 87.957,13.964  " style="fill:#66B144;" />
	<polygon id="d0081" points="91.983,13.964 87.952,13.964 85.943,17.446 89.969,17.446  " style="fill:#66B144;" />
	<polygon id="d0082" points="91.984,6.999 87.953,6.999 85.944,10.482 89.97,10.482  " style="fill:#66B144;" />
	</g>
<g id="VuMark-BrightElements">
	<polygon id="b0001" points="29.627,45.304 25.596,45.304 23.587,48.786 27.614,48.786  " style="fill:#FFFFFF;" />
	<polygon id="b0002" points="29.629,38.339 25.597,38.339 23.589,41.822 27.615,41.822  " style="fill:#FFFFFF;" />
	<polygon id="b0005" points="33.655,38.339 29.624,38.339 27.615,41.822 31.641,41.822  " style="fill:#FFFFFF;" />
	<polygon id="b0011" points="41.706,45.304 37.675,45.304 35.666,48.786 39.692,48.786  " style="fill:#FFFFFF;" />
	<polygon id="b0014" points="31.642,34.857 27.611,34.857 25.602,38.339 29.629,38.339  " style="fill:#FFFFFF;" />
	<polygon id="b0017" points="35.67,27.893 31.639,27.893 29.63,31.375 33.656,31.375  " style="fill:#FFFFFF;" />
	<polygon id="b0018" points="37.682,31.375 33.651,31.375 31.642,34.857 35.668,34.857  " style="fill:#FFFFFF;" />
	<polygon id="b0019" points="33.653,24.41 37.684,24.41 39.692,27.893 35.666,27.893  " style="fill:#FFFFFF;" />
	<polygon id="b0020" points="39.696,27.893 35.665,27.893 33.656,31.375 37.682,31.375  " style="fill:#FFFFFF;" />
	<polygon id="b0023" points="27.611,13.964 31.643,13.964 33.651,17.446 29.625,17.446  " style="fill:#FFFFFF;" />
	<polygon id="b0025" points="29.625,17.446 33.656,17.446 35.665,20.928 31.639,20.928  " style="fill:#FFFFFF;" />
	<polygon id="b0027" points="31.638,13.964 35.669,13.964 37.678,17.446 33.651,17.446  " style="fill:#FFFFFF;" />
	<polygon id="b0029" points="21.572,10.482 25.603,10.482 27.611,13.964 23.585,13.964  " style="fill:#FFFFFF;" />
	<polygon id="b0030" points="23.584,6.999 27.615,6.999 29.624,10.482 25.598,10.482  " style="fill:#FFFFFF;" />
	<polygon id="b0032" points="27.61,6.999 31.641,6.999 33.65,10.482 29.624,10.482  " style="fill:#FFFFFF;" />
	<polygon id="b0036" points="33.65,10.482 37.681,10.482 39.69,13.964 35.664,13.964  " style="fill:#FFFFFF;" />
	<polygon id="b0038" points="35.663,6.999 39.694,6.999 41.703,10.482 37.676,10.482  " style="fill:#FFFFFF;" />
	<polygon id="b0044" points="73.857,45.304 77.888,45.304 79.897,48.786 75.871,48.786  " style="fill:#FFFFFF;" />
	<polygon id="b0048" points="79.896,41.822 83.927,41.822 85.936,45.304 81.91,45.304  " style="fill:#FFFFFF;" />
	<polygon id="b0052" points="79.894,27.893 83.925,27.893 85.934,31.375 81.907,31.375  " style="fill:#FFFFFF;" />
	<polygon id="b0057" points="83.921,34.857 87.952,34.857 89.961,38.339 85.935,38.339  " style="fill:#FFFFFF;" />
	<polygon id="b0061" points="87.949,41.822 91.98,41.822 93.988,45.304 89.962,45.304  " style="fill:#FFFFFF;" />
	<polygon id="b0062" points="89.962,45.304 93.993,45.304 96.002,48.786 91.976,48.786  " style="fill:#FFFFFF;" />
<polygon id="b0063" points="81.911,24.41 77.88,24.41 75.871,27.893 79.897,27.893  " style="fill:#FFFFFF;" />
	<polygon id="b0065" points="83.925,20.928 79.893,20.928 77.885,24.41 81.911,24.41  " style="fill:#FFFFFF;" />
	<polygon id="b0068" points="85.938,17.446 81.907,17.446 79.898,20.928 83.925,20.928  " style="fill:#FFFFFF;" />
	<polygon id="b0069" points="87.951,20.928 83.92,20.928 81.911,24.41 85.937,24.41  " style="fill:#FFFFFF;" />
	<polygon id="b0071" points="75.874,6.999 71.843,6.999 69.834,10.482 73.861,10.482  " style="fill:#FFFFFF;" />
	<polygon id="b0072" points="77.887,10.482 73.856,10.482 71.847,13.964 75.873,13.964  " style="fill:#FFFFFF;" />
	<polygon id="b0076" points="85.939,10.482 81.908,10.482 79.899,13.964 83.926,13.964  " style="fill:#FFFFFF;" />
	<polygon id="b0077" points="87.952,13.964 83.921,13.964 81.912,17.446 85.938,17.446  " style="fill:#FFFFFF;" />
	<polygon id="b0078" points="87.953,6.999 83.922,6.999 81.913,10.482 85.939,10.482  " style="fill:#FFFFFF;" />
	<polygon id="b0079" points="89.964,17.446 85.933,17.446 83.925,20.928 87.951,20.928  " style="fill:#FFFFFF;" />
	<polygon id="b0083" points="93.992,10.482 89.961,10.482 87.952,13.964 91.978,13.964  " style="fill:#FFFFFF;" />
	</g>
</svg>